<svg width="25" height="25" viewBox="0 0 25 25" fill="none" xmlns="http://www.w3.org/2000/svg">
<circle cx="12.9816" cy="12.8748" r="12" fill="white"/>
<path d="M8.31555 17.6541H18.4523C19.6827 17.6541 20.2921 17.0447 20.2921 15.8376V12.6033C20.2921 12.0759 20.2101 11.8298 19.9581 11.49L17.9366 8.75366C17.298 7.88062 16.9464 7.6521 15.9034 7.6521H10.8644C9.82141 7.6521 9.47571 7.88062 8.83704 8.75366L6.80969 11.49C6.5636 11.8298 6.47571 12.0759 6.47571 12.6033V15.8376C6.47571 17.0505 7.09094 17.6541 8.31555 17.6541ZM13.3839 14.2615C12.505 14.2615 11.9425 13.4998 11.9425 12.7791V12.7615C11.9425 12.4978 11.7843 12.2517 11.4562 12.2517H7.72375C7.5304 12.2517 7.48938 12.0876 7.58313 11.9587L9.7511 8.98218C10.0206 8.60718 10.3663 8.47241 10.7941 8.47241H15.9738C16.4015 8.47241 16.7472 8.60718 17.0167 8.98218L19.1847 11.9587C19.2726 12.0876 19.2374 12.2517 19.0441 12.2517H15.3116C14.9835 12.2517 14.8312 12.4978 14.8312 12.7615V12.7791C14.8312 13.4998 14.2687 14.2615 13.3839 14.2615Z" fill="#4B4E54"/>
</svg>
