<svg width="25" height="25" viewBox="0 0 25 25" fill="none" xmlns="http://www.w3.org/2000/svg">
<circle cx="12.9816" cy="12.8748" r="12" fill="#F92D00"/>
<path d="M9.31555 18.0466H17.3195C18.5441 18.0466 19.1534 17.4373 19.1534 16.2302V9.07593C19.1534 7.8689 18.5441 7.25952 17.3195 7.25952H9.31555C8.09094 7.25952 7.47571 7.86304 7.47571 9.07593V16.2302C7.47571 17.4431 8.09094 18.0466 9.31555 18.0466ZM9.22766 17.1033C8.70618 17.1033 8.41907 16.8279 8.41907 16.283V10.7576C8.41907 10.2185 8.70618 9.93726 9.22766 9.93726H17.3956C17.9171 9.93726 18.2101 10.2185 18.2101 10.7576V16.283C18.2101 16.8279 17.9171 17.1033 17.3956 17.1033H9.22766ZM12.1749 12.0408H12.5206C12.7257 12.0408 12.7902 11.9822 12.7902 11.7771V11.4314C12.7902 11.2263 12.7257 11.1619 12.5206 11.1619H12.1749C11.9698 11.1619 11.8995 11.2263 11.8995 11.4314V11.7771C11.8995 11.9822 11.9698 12.0408 12.1749 12.0408ZM14.1202 12.0408H14.4659C14.671 12.0408 14.7413 11.9822 14.7413 11.7771V11.4314C14.7413 11.2263 14.671 11.1619 14.4659 11.1619H14.1202C13.9152 11.1619 13.8448 11.2263 13.8448 11.4314V11.7771C13.8448 11.9822 13.9152 12.0408 14.1202 12.0408ZM16.0656 12.0408H16.4113C16.6163 12.0408 16.6866 11.9822 16.6866 11.7771V11.4314C16.6866 11.2263 16.6163 11.1619 16.4113 11.1619H16.0656C15.8605 11.1619 15.796 11.2263 15.796 11.4314V11.7771C15.796 11.9822 15.8605 12.0408 16.0656 12.0408ZM10.2296 13.9568H10.5695C10.7804 13.9568 10.8448 13.8982 10.8448 13.6931V13.3474C10.8448 13.1423 10.7804 13.0837 10.5695 13.0837H10.2296C10.0187 13.0837 9.95422 13.1423 9.95422 13.3474V13.6931C9.95422 13.8982 10.0187 13.9568 10.2296 13.9568ZM12.1749 13.9568H12.5206C12.7257 13.9568 12.7902 13.8982 12.7902 13.6931V13.3474C12.7902 13.1423 12.7257 13.0837 12.5206 13.0837H12.1749C11.9698 13.0837 11.8995 13.1423 11.8995 13.3474V13.6931C11.8995 13.8982 11.9698 13.9568 12.1749 13.9568ZM14.1202 13.9568H14.4659C14.671 13.9568 14.7413 13.8982 14.7413 13.6931V13.3474C14.7413 13.1423 14.671 13.0837 14.4659 13.0837H14.1202C13.9152 13.0837 13.8448 13.1423 13.8448 13.3474V13.6931C13.8448 13.8982 13.9152 13.9568 14.1202 13.9568ZM16.0656 13.9568H16.4113C16.6163 13.9568 16.6866 13.8982 16.6866 13.6931V13.3474C16.6866 13.1423 16.6163 13.0837 16.4113 13.0837H16.0656C15.8605 13.0837 15.796 13.1423 15.796 13.3474V13.6931C15.796 13.8982 15.8605 13.9568 16.0656 13.9568ZM10.2296 15.8787H10.5695C10.7804 15.8787 10.8448 15.8142 10.8448 15.6091V15.2634C10.8448 15.0583 10.7804 14.9998 10.5695 14.9998H10.2296C10.0187 14.9998 9.95422 15.0583 9.95422 15.2634V15.6091C9.95422 15.8142 10.0187 15.8787 10.2296 15.8787ZM12.1749 15.8787H12.5206C12.7257 15.8787 12.7902 15.8142 12.7902 15.6091V15.2634C12.7902 15.0583 12.7257 14.9998 12.5206 14.9998H12.1749C11.9698 14.9998 11.8995 15.0583 11.8995 15.2634V15.6091C11.8995 15.8142 11.9698 15.8787 12.1749 15.8787ZM14.1202 15.8787H14.4659C14.671 15.8787 14.7413 15.8142 14.7413 15.6091V15.2634C14.7413 15.0583 14.671 14.9998 14.4659 14.9998H14.1202C13.9152 14.9998 13.8448 15.0583 13.8448 15.2634V15.6091C13.8448 15.8142 13.9152 15.8787 14.1202 15.8787Z" fill="white"/>
</svg>
